<svg xmlns="http://www.w3.org/2000/svg" width="447" height="330" viewBox="0 0 447 330">
  <path fill="#FFFFFF" fill-rule="evenodd" d="M20.941,136.812V83.437h9.984q10.944,0,17.664-3.744A28.578,28.578,0,0,0,59.341,69.229a32.526,32.526,0,0,0,4.512-11.9,96.9,96.9,0,0,0,1.056-15.552q0-12.285-1.92-19.488A29.309,29.309,0,0,0,56.077,9.709,27.317,27.317,0,0,0,44.941,2.221,43.7,43.7,0,0,0,30.733.109H1.357v136.7H20.941ZM31.117,18.541q5.76,0,8.832,1.728a10.929,10.929,0,0,1,4.608,4.992,19.776,19.776,0,0,1,1.728,7.584q0.189,4.32.192,9.12,0,5.184-.288,9.408a17.558,17.558,0,0,1-1.824,7.1,10.884,10.884,0,0,1-4.8,4.8Q36.3,65,30.349,65H20.941V18.541H31.117ZM137.868,136.812V117.229H99.084V77.1h33.792V58.669H99.084V18.541h38.784V0.109H79.5v136.7h58.368ZM170.507,89l9.6-49.536h0.384L190.091,89H170.507Zm-9.216,47.808,5.76-29.375h26.688l5.76,29.375h19.584L188.555,0.109h-16.32l-30.528,136.7h19.584ZM258.443,18.541q10.175,0,13.824,5.376a18.263,18.263,0,0,1,2.3,6.816,63.7,63.7,0,0,1,.576,9.12,63.673,63.673,0,0,1-.576,9.12,18.773,18.773,0,0,1-2.112,6.624,11.219,11.219,0,0,1-4.8,4.128,19.708,19.708,0,0,1-8.256,1.44H248.267V18.541h10.176ZM248.267,136.812V78.445h11.712l18.24,58.368h20.736l-21.12-62.4q9.405-5.184,13.152-13.632t3.744-20.544q0-40.126-34.56-40.128H228.683v136.7h19.584Zm120.575,0V117.229H330.058V0.109H310.474v136.7h58.368Zm50.5,0V79.021l26.88-78.912H425.481L409.737,54.445h-0.384L393.609,0.109H372.873l26.88,78.912v57.792h19.584Zm-399.164,192V246.636h0.384l29.952,82.176H68.941v-136.7H49.357v82.368H48.973L19.4,192.109H0.589v136.7H20.173Zm86.589,0v-136.7H87.178v136.7h19.584Zm17.855-32.255a34.6,34.6,0,0,0,2.88,14.783,29.263,29.263,0,0,0,7.68,10.176,30.757,30.757,0,0,0,10.464,6.336,34.065,34.065,0,0,0,23.616,0,32.91,32.91,0,0,0,10.656-6.336A30.46,30.46,0,0,0,187.4,311.34a34.6,34.6,0,0,0,2.88-14.783V253.549H155.145v17.279H170.7v25.729q0,7.105-3.936,10.464a14.587,14.587,0,0,1-18.624,0q-3.937-3.357-3.936-10.464V224.365q0-7.1,3.936-10.465a14.584,14.584,0,0,1,18.624,0q3.933,3.363,3.936,10.465v6.911h19.584v-6.911a34.936,34.936,0,0,0-2.88-14.593,32.171,32.171,0,0,0-7.488-10.56,34.485,34.485,0,0,0-34.272-6.144,32.52,32.52,0,0,0-10.464,6.144,30.841,30.841,0,0,0-7.68,10.56,34.936,34.936,0,0,0-2.88,14.593v72.192Zm102.527,32.255V267.949h24.192v60.863H270.92v-136.7H251.336v58.56H227.144v-58.56H207.56v136.7h19.584Zm94.655,0V210.54h22.656V192.109h-64.9V210.54h22.656V328.812H321.8Z" />
</svg>
